<svg xmlns="http://www.w3.org/2000/svg" width="160" height="80" fill="none"><g fill="#fff" opacity=".98"><path d="M117.553 64.39h2.194c.746 0 1.35.58 1.35 1.296V80h-3.544V64.39ZM122.531 64.39h2.194c.746 0 1.351.58 1.351 1.296V80h-3.545V64.39Z"/><path fill-rule="evenodd" d="M42.476 68.085c.358.33.798.494 1.32.494s.962-.164 1.32-.494c.358-.33.537-.745.537-1.247a1.6 1.6 0 0 0-.537-1.225c-.358-.344-.798-.516-1.32-.516s-.962.172-1.32.516a1.6 1.6 0 0 0-.536 1.225c0 .502.178.917.536 1.247Z" clip-rule="evenodd"/><path d="M45.233 60.713s-21.983-7.978-27.258-.972c-2.821 3.748-.17 11.826-.17 11.826s.327-4.884 3.077-7.34c7.3-6.52 19.916-.905 31.988 1.67 7.215 1.538 11.167 2.288 18.354 3.442 7.31 1.173 18.734 2.48 18.734 2.48s-14.814-2.905-24.177-5.275c-8.091-2.047-20.548-5.831-20.548-5.831Z"/><path fill-rule="evenodd" d="M36.258 64.39a.083.083 0 0 0-.084.081v15.445c0 .044.037.08.084.08h3.348a.083.083 0 0 0 .084-.08v-14.23c0-.715-.604-1.296-1.35-1.296h-2.082ZM2.233 79.84c.87.156 1.783.157 2.74.157 4.23 0 6.345-1.399 6.345-4.348 0-1.652-.862-2.78-2.586-3.388.707-.352 1.238-.818 1.591-1.397a3.545 3.545 0 0 0 .553-1.905c0-1.37-.471-2.428-1.415-3.176-.943-.762-2.38-1.143-4.31-1.143-.885 0-1.74.099-2.565.296-.807.18-1.537.44-2.189.782a.08.08 0 0 0-.043.07v2.345c0 .064.074.103.13.07a7.478 7.478 0 0 1 1.903-.81 8.519 8.519 0 0 1 2.3-.297c.869 0 1.547.17 2.033.508.487.338.73.832.73 1.482 0 .649-.273 1.143-.818 1.482-.53.324-1.275.487-2.233.487H2.54a.083.083 0 0 0-.085.08v2.294c0 .045.038.081.084.081h1.95c1.164 0 2.026.156 2.586.466.56.296.84.805.84 1.524 0 .678-.287 1.2-.862 1.567-.56.367-1.415.55-2.564.55-1.52 0-2.975-.293-4.368-.88-.057-.024-.12.016-.12.075v2.322c0 .03.018.059.047.072.61.285 1.338.497 2.186.634Zm51.474.157c-1.916 0-3.441-.39-4.576-1.321-1.135-.946-1.702-2.272-1.702-3.98 0-1.708.567-3.034 1.702-3.98 1.15-.96 2.682-1.44 4.598-1.44 1.717 0 3.089.303 4.116.908a.08.08 0 0 1 .04.069v2.316c0 .066-.078.105-.135.069a5.078 5.078 0 0 0-1.523-.63 8.06 8.06 0 0 0-1.967-.234c-1.032 0-1.857.24-2.476.72-.62.48-.929 1.214-.929 2.202s.302 1.722.907 2.202c.618.465 1.444.698 2.475.698 1.373 0 2.59-.306 3.65-.917.057-.033.13.006.13.07v2.305a.08.08 0 0 1-.04.069c-1.085.632-2.509.874-4.27.874Zm6.183-11.445c-.053-.012-.103.027-.103.079v11.285c0 .044.038.08.084.08h3.348a.083.083 0 0 0 .085-.08v-4.733l4.555 4.787a.086.086 0 0 0 .063.027h3.637c.074 0 .112-.085.062-.137l-5.16-5.312 3.523-4.012c.044-.049.014-.124-.053-.133a40.318 40.318 0 0 1-1.492-.214 42.602 42.602 0 0 1-1.585-.319.086.086 0 0 0-.083.027l-3.467 3.994v-4.606a.082.082 0 0 0-.07-.08 96.199 96.199 0 0 1-1.715-.311c-.55-.108-1.347-.281-1.629-.342ZM96.1 79.997c-.944 0-1.88-.008-2.808-.178-.904-.165-1.648-.383-2.23-.655a.08.08 0 0 1-.047-.072v-2.657c0-.06.065-.1.122-.074.743.34 1.513.596 2.31.77.84.183 1.643.275 2.41.275.854 0 1.502-.141 1.944-.424.443-.282.664-.677.664-1.185 0-.367-.11-.678-.332-.932-.221-.254-.545-.48-.973-.677-.412-.212-1.053-.487-1.923-.826-.785-.307-1.453-.633-2.003-.977 2.633.322 4.436.493 4.436.493s-2.092-.41-5.202-1.049a4.587 4.587 0 0 1-.37-.351c-.648-.706-.973-1.574-.973-2.604 0-.833.236-1.567.708-2.202.471-.649 1.135-1.15 1.99-1.503.854-.353 1.842-.53 2.962-.53.913 0 1.724.072 2.431.213.69.137 1.367.349 2.029.634a.08.08 0 0 1 .049.074v2.57c0 .06-.066.099-.122.072-1.256-.582-2.512-.873-3.769-.873-.825 0-1.473.14-1.945.423-.471.268-.707.656-.707 1.164 0 .367.11.67.331.91.222.24.53.452.929.636.398.183 1.046.451 1.945.804 1.046.424 1.864.833 2.454 1.228.589.381 1.024.84 1.304 1.376.28.522.42 1.172.42 1.948 0 1.34-.508 2.385-1.525 3.133-1.002.748-2.505 1.046-4.51 1.046Zm9.225-1.321c1.165.931 2.764 1.32 4.797 1.32l.382.002h.001c.654.005 1.262.01 2.049-.115.767-.122 1.429-.285 1.938-.488a.08.08 0 0 0 .052-.074V77.25c0-.057-.06-.096-.116-.077a9.998 9.998 0 0 1-1.763.424 13.59 13.59 0 0 1-2.1.17c-2.299 0-3.567-.65-3.803-1.948h8.67a.082.082 0 0 0 .084-.081v-1.21c0-1.002-.228-1.899-.685-2.69-.457-.804-1.127-1.432-2.012-1.883-.884-.452-1.96-.678-3.227-.678-1.931 0-3.419.487-4.466 1.461-1.031.974-1.547 2.3-1.547 3.98 0 1.694.582 3.013 1.746 3.959Zm6.234-6.5c.487.368.752.89.796 1.567h-5.593c.045-.663.31-1.185.796-1.566.487-.382 1.15-.572 1.99-.572.854 0 1.525.19 2.011.572Zm23.217 7.82c-2.034 0-3.633-.388-4.797-1.32-1.164-.946-1.746-2.265-1.746-3.959 0-1.68.515-3.006 1.547-3.98 1.046-.974 2.535-1.46 4.465-1.46 1.268 0 2.344.225 3.228.677.884.451 1.555 1.08 2.012 1.884.456.79.685 1.687.685 2.689v1.21a.083.083 0 0 1-.085.08h-8.669c.236 1.3 1.503 1.949 3.802 1.949.678 0 1.378-.057 2.1-.17a9.989 9.989 0 0 0 1.764-.424c.056-.02.115.02.115.077v2.072a.08.08 0 0 1-.051.074c-.508.202-1.154.365-1.938.488-.742.116-1.483.115-2.224.114h-.208Zm2.233-6.253c-.045-.677-.31-1.2-.796-1.566-.487-.382-1.157-.572-2.012-.572-.84 0-1.503.19-1.989.572-.487.38-.752.903-.796 1.566h5.593Zm5.091-3.908a.083.083 0 0 0-.084.08v10c0 .045.038.082.084.082h3.17a.083.083 0 0 0 .084-.081v-5.91c.295-.608.825-1.06 1.592-1.356.759-.288 1.63-.436 2.612-.444a.084.084 0 0 0 .085-.081v-2.273a.082.082 0 0 0-.085-.08c-.938.007-1.78.141-2.524.401-.766.254-1.363.629-1.79 1.123v-1.38a.083.083 0 0 0-.085-.081H142.1Zm12.992 10.162c-.795 0-1.65-.008-2.564-.178-.875-.151-1.569-.37-2.081-.654a.078.078 0 0 1-.041-.07v-2.308c0-.063.072-.103.129-.072.563.306 1.227.558 1.993.754.825.212 1.592.318 2.299.318.604 0 1.047-.05 1.327-.148.28-.1.42-.283.42-.55a.611.611 0 0 0-.244-.509c-.162-.141-.412-.261-.751-.36a29.73 29.73 0 0 0-1.636-.487c-.899-.254-1.606-.508-2.122-.762-.501-.268-.884-.6-1.15-.995-.25-.395-.376-.903-.376-1.524 0-1.059.435-1.85 1.305-2.371.884-.537 2.078-.805 3.581-.805.737 0 1.496.078 2.277.233.77.137 1.368.32 1.793.549a.08.08 0 0 1 .042.07v2.238c0 .064-.075.103-.133.07-.408-.232-.924-.425-1.547-.577a8.196 8.196 0 0 0-1.99-.254c-.604 0-1.076.056-1.415.17-.324.112-.486.324-.486.634 0 .269.155.473.464.614.324.142.921.318 1.791.53l.442.106c.928.24 1.65.508 2.166.804.516.282.877.628 1.083 1.037.221.396.332.897.332 1.504 0 .931-.42 1.679-1.26 2.244-.84.55-2.056.749-3.648.749Zm-126.249 0c-1.65 0-3.11-.234-4.377-.855-1.267-.635-2.247-1.532-2.94-2.689 0 0-.225-.503-.613-1.327-.284-.836-.426-1.755-.426-2.759 0-1.567.346-2.928 1.039-4.086.693-1.171 1.673-2.067 2.94-2.688 1.267-.636 2.726-.953 4.377-.953h.152c2.051.022 3.771.48 5.16 1.373a.08.08 0 0 1 .038.067v2.832c0 .069-.084.107-.14.064a6.02 6.02 0 0 0-2.093-1.012c-.825-.24-1.768-.36-2.83-.36-1.606 0-2.88.43-3.824 1.291-.928.847-1.393 2.004-1.393 3.472 0 1.482.472 2.653 1.415 3.514.943.847 2.21 1.27 3.803 1.27 1.09 0 2.055-.12 2.895-.36a7.327 7.327 0 0 0 2.206-1.103c.056-.041.138-.003.138.065v2.84a.08.08 0 0 1-.035.065c-1.352.942-3.183 1.339-5.492 1.339Zm16.792 0a.083.083 0 0 0 .084-.082v-8.721c0-.716-.604-1.296-1.35-1.296h-2.082a.083.083 0 0 0-.084.081v9.936c0 .045.037.081.084.081h3.348Zm28.745-.178c.913.17 1.768.178 2.564.178 1.592 0 2.807-.199 3.647-.75.84-.564 1.26-1.312 1.26-2.243 0-.607-.11-1.108-.331-1.504-.206-.409-.567-.755-1.083-1.037-.516-.296-1.238-.564-2.167-.804l-.442-.106c-.87-.212-1.466-.388-1.79-.53-.31-.14-.465-.345-.465-.614 0-.31.163-.522.487-.635.339-.112.86-.117 1.415-.107.786.014 1.233.097 1.99.304.612.168 1.136.348 1.546.578.058.032.133-.007.133-.071v-.495l-4.266-.538-4.25-.625c-.32.445-.481.989-.481 1.632 0 .62.125 1.129.376 1.524.265.395.648.727 1.15.995.515.254 1.222.508 2.121.762.767.212 1.312.374 1.636.487.34.099.59.219.752.36a.613.613 0 0 1 .243.508c0 .268-.14.452-.42.55-.28.1-.722.149-1.326.149-.708 0-1.474-.106-2.3-.318-.765-.196-1.43-.447-1.993-.753-.057-.031-.129.008-.129.07v2.31a.08.08 0 0 0 .042.069c.512.285 1.205.503 2.08.654Z" clip-rule="evenodd"/><path d="M18.945 55.934s1.043-12.61 2.826-19.994c1.746-7.227 2.828-11.373 6.238-18.02C31.865 10.401 40.848.383 40.848.383s-3.633 20.064-1.439 31.838c2.227 11.948 11.435 27.722 11.435 27.722s-2.05-.615-4.937-1.499c-1.687-.567-3.79-1.239-5.696-1.741-2.152-.567-4.726-1.175-7.088-1.58a56.099 56.099 0 0 0-4.937-.566c-6.08-.398-9.24 1.377-9.24 1.377Z"/><path d="M66.245 64.236c4.523 1.14 11.646 2.673 11.646 2.673s-16.077-14.85-22.489-26.794c-1.765-3.288-4.247-6.987-5.866-11.88-2.401-7.262-3.038-19.52-3.038-19.52s-5.001 9.824-5.086 16.33c-.102 7.87 1.551 12.12 4.496 19.469 2.742 6.844 8.312 16.401 8.312 16.401s7.3 2.129 12.025 3.32Z"/></g></svg>