<svg width="24" height="24" viewBox="0 0 24 24" fill="none" xmlns="http://www.w3.org/2000/svg">
<path d="M16.8 12C16.8 14.651 14.651 16.8 12 16.8C9.34902 16.8 7.19999 14.651 7.19999 12C7.19999 9.34908 9.34902 7.20005 12 7.20005C14.651 7.20005 16.8 9.34908 16.8 12ZM16.8 12V13.6C16.8 15.3674 18.2327 16.8 20 16.8C21.1353 16.8 22.1325 16.2089 22.7005 15.3175C23.0168 14.8213 23.2 14.2321 23.2 13.6V12C23.2 5.81446 18.1856 0.800049 12 0.800049C5.8144 0.800049 0.799988 5.81446 0.799988 12C0.799988 18.1856 5.8144 23.2 12 23.2C14.3796 23.2 16.5859 22.4579 18.4 21.1925" stroke="black" stroke-opacity="0.6"/>
</svg>
