<svg width="24" height="24" viewBox="0 0 24 24" fill="none" xmlns="http://www.w3.org/2000/svg">
<g opacity="0.9">
<path d="M7.55075 0.799805H3.99999C2.23268 0.799805 0.799988 2.23249 0.799988 3.9998V7.1998C0.799988 16.0364 7.96343 23.1998 16.8 23.1998H20C21.7673 23.1998 23.2 21.7671 23.2 19.9998V17.7887C23.2 17.1826 22.8576 16.6286 22.3155 16.3576L18.45 14.4248C17.5792 13.9894 16.5245 14.4262 16.2166 15.35L15.7402 16.7792C15.4316 17.705 14.4819 18.2562 13.5249 18.0648C9.69485 17.2988 6.70102 14.3049 5.935 10.4749C5.74361 9.51792 6.29475 8.56822 7.22056 8.25961L8.99437 7.66834C9.78753 7.40396 10.2434 6.57349 10.0406 5.76239L9.10297 2.01175C8.92491 1.29948 8.28493 0.799805 7.55075 0.799805Z" stroke="black" stroke-opacity="0.6"/>
</g>
</svg>
