<svg width="210" height="210" viewBox="0 0 210 210" fill="none" xmlns="http://www.w3.org/2000/svg">
<path d="M0 43.2353C0 19.3571 19.3571 0 43.2353 0L166.765 0C190.643 0 210 19.3571 210 43.2353V166.765C210 190.643 190.643 210 166.765 210H43.2353C19.3571 210 0 190.643 0 166.765L0 43.2353Z" fill="url(#paint0_linear_8_701)"/>
<path opacity="0.95" d="M96.4865 153.444C96.4865 153.444 48.0223 135.071 36.3943 151.206C30.1735 159.838 36.0204 178.439 36.0204 178.439C36.0204 178.439 37.3072 168.241 43.3692 162.585C59.4621 147.569 86.7099 159.452 113.324 165.382C129.23 168.926 137.942 170.653 153.788 173.309C169.904 176.011 195.089 179.023 195.089 179.023C195.089 179.023 162.429 172.331 141.788 166.874C123.95 162.158 96.4865 153.444 96.4865 153.444Z" fill="white"/>
<path opacity="0.95" d="M38.4023 142.713C38.4023 142.713 40.7021 113.722 44.6374 96.7468C48.4893 80.1309 50.8772 70.6002 58.4008 55.318C66.9092 38.0353 86.7298 15.0049 86.7298 15.0049C86.7298 15.0049 78.7133 61.1322 83.5554 88.1996C88.4691 115.667 108.786 151.929 108.786 151.929C108.786 151.929 104.261 150.517 97.8933 148.485C94.1693 147.181 89.53 145.636 85.3248 144.481C80.5766 143.178 74.8975 141.781 69.6839 140.85C65.4131 140.143 61.4953 139.731 58.7912 139.547C45.3768 138.632 38.4023 142.713 38.4023 142.713Z" fill="white"/>
<path opacity="0.95" d="M142.769 161.797C152.748 164.419 168.465 167.942 168.465 167.942C168.465 167.942 132.991 133.806 118.844 106.346C114.949 98.7855 109.472 90.2826 105.9 79.0316C100.602 62.3387 99.1969 34.1576 99.1969 34.1576C99.1969 34.1576 88.1619 56.7442 87.9749 71.6993C87.7487 89.7941 91.3975 99.5653 97.8945 116.458C103.946 132.192 116.236 154.163 116.236 154.163C116.236 154.163 132.341 159.057 142.769 161.797Z" fill="white"/>
<defs>
<linearGradient id="paint0_linear_8_701" x1="210.133" y1="25.7051" x2="-15.8442" y2="161.499" gradientUnits="userSpaceOnUse">
<stop stop-color="#49CCF9"/>
<stop offset="1" stop-color="#8930FD"/>
</linearGradient>
</defs>
</svg>
